<svg width="512" height="512" viewBox="0 0 512 512" fill="none" xmlns="http://www.w3.org/2000/svg">
  <defs>
    <linearGradient id="bg" x1="64" y1="48" x2="448" y2="464" gradientUnits="userSpaceOnUse">
      <stop offset="0" stop-color="#0EA5FF"/>
      <stop offset="0.55" stop-color="#1463FF"/>
      <stop offset="1" stop-color="#0B1B5E"/>
    </linearGradient>
    <linearGradient id="glow" x1="160" y1="120" x2="362" y2="402" gradientUnits="userSpaceOnUse">
      <stop offset="0" stop-color="#8AE4FF" stop-opacity="0.95"/>
      <stop offset="1" stop-color="#1D4ED8" stop-opacity="0.2"/>
    </linearGradient>
    <filter id="shadow" x="18" y="26" width="476" height="476" filterUnits="userSpaceOnUse" color-interpolation-filters="sRGB">
      <feFlood flood-opacity="0" result="BackgroundImageFix"/>
      <feColorMatrix in="SourceAlpha" type="matrix" values="0 0 0 0 0 0 0 0 0 0 0 0 0 0 0 0 0 0 127 0" result="hardAlpha"/>
      <feOffset dy="18"/>
      <feGaussianBlur stdDeviation="22"/>
      <feColorMatrix type="matrix" values="0 0 0 0 0.0196078 0 0 0 0 0.0862745 0 0 0 0 0.294118 0 0 0 0.3 0"/>
      <feBlend mode="normal" in2="BackgroundImageFix" result="effect1_dropShadow_1_2"/>
      <feBlend mode="normal" in="SourceGraphic" in2="effect1_dropShadow_1_2" result="shape"/>
    </filter>
  </defs>
  <g filter="url(#shadow)">
    <rect x="48" y="40" width="416" height="416" rx="116" fill="url(#bg)"/>
    <circle cx="256" cy="248" r="144" stroke="white" stroke-opacity="0.15" stroke-width="18"/>
    <circle cx="256" cy="248" r="104" stroke="url(#glow)" stroke-width="20"/>
    <path d="M182 140H262C317.228 140 362 184.772 362 240C362 268.333 350.228 293.917 331.295 312.107C350.228 330.297 362 355.881 362 384.214C362 439.442 317.228 484.214 262 484.214H182V140Z" fill="white" fill-opacity="0.12"/>
    <path d="M182 140H252C302.81 140 344 181.19 344 232C344 260.641 330.922 286.227 310.437 303.094C335.578 319.711 352 348.23 352 380.584C352 431.37 310.785 472.584 260 472.584H182V140Z" fill="white"/>
    <path d="M222 190H252C275.196 190 294 208.804 294 232C294 255.196 275.196 274 252 274H222V190Z" fill="url(#bg)"/>
    <path d="M222 324H258C281.196 324 300 342.804 300 366C300 389.196 281.196 408 258 408H222V324Z" fill="url(#bg)"/>
    <path d="M362 152C396.242 152 424 179.758 424 214" stroke="white" stroke-opacity="0.7" stroke-width="16" stroke-linecap="round"/>
    <path d="M387 122C437.81 122 479 163.19 479 214" stroke="white" stroke-opacity="0.28" stroke-width="16" stroke-linecap="round"/>
    <circle cx="392" cy="142" r="34" fill="#7DD3FC" stroke="white" stroke-width="12"/>
  </g>
</svg>
